<svg width="10" height="9" viewBox="0 0 10 9" fill="none" xmlns="http://www.w3.org/2000/svg">
<path d="M5.48488 0.859723C5.45001 0.89455 5.42235 0.935909 5.40348 0.981434C5.38461 1.02696 5.3749 1.07575 5.3749 1.12504C5.3749 1.17432 5.38461 1.22311 5.40348 1.26864C5.42235 1.31416 5.45001 1.35552 5.48488 1.39035L8.22004 4.12504L0.875193 4.12504C0.775738 4.12504 0.680354 4.16454 0.610028 4.23487C0.539702 4.3052 0.500193 4.40058 0.500193 4.50004C0.500193 4.59949 0.539702 4.69487 0.610028 4.7652C0.680354 4.83553 0.775738 4.87504 0.875193 4.87504L8.22004 4.87504L5.48488 7.60972C5.41452 7.68009 5.37498 7.77552 5.37498 7.87504C5.37498 7.97455 5.41452 8.06998 5.48488 8.14035C5.55525 8.21071 5.65068 8.25024 5.75019 8.25024C5.8497 8.25024 5.94514 8.21071 6.01551 8.14035L9.39051 4.76535C9.42537 4.73052 9.45303 4.68916 9.4719 4.64364C9.49077 4.59811 9.50049 4.54932 9.50049 4.50004C9.50049 4.45075 9.49077 4.40196 9.4719 4.35643C9.45303 4.31091 9.42537 4.26955 9.39051 4.23472L6.01551 0.859723C5.98068 0.824856 5.93932 0.797197 5.8938 0.778325C5.84827 0.759453 5.79947 0.749741 5.75019 0.749741C5.70091 0.749741 5.65211 0.759453 5.60659 0.778325C5.56107 0.797197 5.51971 0.824856 5.48488 0.859723Z" fill="#0D345F"/>
</svg>
