<svg width="12" height="12" viewBox="0 0 12 12" fill="none" xmlns="http://www.w3.org/2000/svg">
<path d="M6.48488 2.35966C6.45001 2.39449 6.42235 2.43585 6.40348 2.48137C6.38461 2.5269 6.3749 2.57569 6.3749 2.62497C6.3749 2.67426 6.38461 2.72305 6.40348 2.76858C6.42235 2.8141 6.45001 2.85546 6.48488 2.89029L9.22004 5.62497L1.87519 5.62498C1.77574 5.62498 1.68035 5.66448 1.61003 5.73481C1.5397 5.80514 1.50019 5.90052 1.50019 5.99998C1.50019 6.09943 1.5397 6.19481 1.61003 6.26514C1.68035 6.33547 1.77574 6.37498 1.87519 6.37498L9.22004 6.37497L6.48488 9.10966C6.41452 9.18003 6.37498 9.27546 6.37498 9.37497C6.37498 9.47449 6.41452 9.56992 6.48488 9.64029C6.55525 9.71065 6.65068 9.75018 6.75019 9.75018C6.8497 9.75018 6.94514 9.71065 7.01551 9.64029L10.3905 6.26529C10.4254 6.23046 10.453 6.1891 10.4719 6.14358C10.4908 6.09805 10.5005 6.04926 10.5005 5.99997C10.5005 5.95069 10.4908 5.9019 10.4719 5.85637C10.453 5.81085 10.4254 5.76949 10.3905 5.73466L7.01551 2.35966C6.98068 2.3248 6.93932 2.29714 6.8938 2.27826C6.84827 2.25939 6.79947 2.24968 6.75019 2.24968C6.70091 2.24968 6.65211 2.25939 6.60659 2.27826C6.56107 2.29714 6.51971 2.3248 6.48488 2.35966Z" fill="#0D345F"/>
</svg>
