<svg width="12" height="12" viewBox="0 0 12 12" fill="none" xmlns="http://www.w3.org/2000/svg">
<path d="M1.96354 9.70833C1.69857 9.70833 1.47181 9.61407 1.28328 9.42553C1.09475 9.237 1.00032 9.01009 1 8.74479V2.96354C1 2.69857 1.09443 2.47181 1.28328 2.28328C1.47214 2.09475 1.69889 2.00032 1.96354 2H9.67188C9.93685 2 10.1638 2.09443 10.3526 2.28328C10.5415 2.47214 10.6357 2.69889 10.6354 2.96354V8.74479C10.6354 9.00977 10.5412 9.23668 10.3526 9.42553C10.1641 9.61439 9.93717 9.70865 9.67188 9.70833H1.96354ZM5.81771 6.33594L9.67188 3.92708V2.96354L5.81771 5.3724L1.96354 2.96354V3.92708L5.81771 6.33594Z" fill="white"/>
</svg>
