<svg width="12" height="12" viewBox="0 0 12 12" fill="none" xmlns="http://www.w3.org/2000/svg">
<path d="M3.1225 4.895C3.8425 6.31 5.0025 7.465 6.4175 8.19L7.5175 7.09C7.6525 6.955 7.8525 6.91 8.0275 6.97C8.5875 7.155 9.1925 7.255 9.8125 7.255C10.0875 7.255 10.3125 7.48 10.3125 7.755V9.5C10.3125 9.775 10.0875 10 9.8125 10C5.1175 10 1.3125 6.195 1.3125 1.5C1.3125 1.225 1.5375 1 1.8125 1H3.5625C3.8375 1 4.0625 1.225 4.0625 1.5C4.0625 2.125 4.1625 2.725 4.3475 3.285C4.4025 3.46 4.3625 3.655 4.2225 3.795L3.1225 4.895Z" fill="#0D345F"/>
</svg>
