<svg width="89" height="17" viewBox="0 0 89 17" fill="none" xmlns="http://www.w3.org/2000/svg">
<path d="M2.87 11H1.106V1.088H4.606C6.51 1.088 8.246 1.76 8.246 3.93C8.246 5.414 7.35 6.422 5.95 6.618L8.582 11H6.454L4.158 6.8H2.87V11ZM2.87 2.6V5.288H4.326C5.334 5.288 6.398 5.148 6.398 3.916C6.398 2.782 5.376 2.6 4.452 2.6H2.87ZM13.0884 4.112C15.2164 4.112 16.2384 5.722 16.2384 7.752V8.228H11.1144C11.2264 9.194 11.9544 9.824 12.9204 9.824C13.6764 9.824 14.2504 9.502 14.7264 8.914L15.9304 9.824C15.2024 10.72 14.2364 11.168 13.0884 11.168C11.0304 11.168 9.43436 9.74 9.43436 7.64C9.43436 5.554 11.0304 4.112 13.0884 4.112ZM11.1144 6.968H14.5584C14.5444 5.918 13.8304 5.372 12.8364 5.372C11.8424 5.372 11.2404 6.016 11.1144 6.968ZM19.8114 11.168C18.4254 11.168 17.3614 10.384 17.3614 9.152C17.3614 7.598 18.6074 6.814 21.4914 6.814H22.0094V6.618C22.0094 5.834 21.3934 5.372 20.4694 5.372C19.7694 5.372 19.1394 5.652 18.6774 6.072L17.7954 5.19C18.3974 4.574 19.3354 4.112 20.6514 4.112C22.9474 4.112 23.5214 5.4 23.5214 6.982V11H22.0094V10.076H21.9674C21.4914 10.832 20.7074 11.168 19.8114 11.168ZM21.4214 7.99C19.9374 7.99 19.0414 8.312 19.0414 9.026C19.0414 9.6 19.6014 9.908 20.2314 9.908C21.3794 9.908 21.9114 9.264 21.9114 8.41V7.99H21.4214ZM30.565 0.415999H32.245V11H30.649V9.992H30.621C30.117 10.818 29.235 11.168 28.297 11.168C26.253 11.168 24.993 9.656 24.993 7.64C24.993 5.736 26.253 4.112 28.241 4.112C29.137 4.112 29.949 4.42 30.523 5.134H30.565V0.415999ZM26.673 7.64C26.673 8.76 27.471 9.656 28.647 9.656C29.991 9.656 30.621 8.564 30.621 7.64C30.621 6.422 29.711 5.624 28.647 5.624C27.471 5.624 26.673 6.534 26.673 7.64ZM38.4859 11V1.088H41.1739L43.8199 8.032L46.4939 1.088H49.1539V11H47.4739V2.768H47.4459L44.4359 11H43.2039L40.1939 2.768H40.1659V11H38.4859ZM54.5688 4.112C56.6268 4.112 58.2228 5.54 58.2228 7.64C58.2228 9.74 56.6268 11.168 54.5688 11.168C52.5108 11.168 50.9148 9.74 50.9148 7.64C50.9148 5.554 52.5248 4.112 54.5688 4.112ZM52.5948 7.64C52.5948 8.802 53.4348 9.656 54.5688 9.656C55.7448 9.656 56.5428 8.76 56.5428 7.64C56.5428 6.478 55.7028 5.624 54.5548 5.624C53.4348 5.624 52.5948 6.492 52.5948 7.64ZM59.7958 11V4.28H61.4758V5.344H61.5038C61.8678 4.574 62.6098 4.112 63.4918 4.112C63.7438 4.112 63.8698 4.154 64.0938 4.21V5.834C63.7718 5.75 63.5338 5.708 63.2818 5.708C62.0078 5.708 61.4758 6.604 61.4758 7.5V11H59.7958ZM68.3091 4.112C70.4371 4.112 71.4591 5.722 71.4591 7.752V8.228H66.3351C66.4471 9.194 67.1751 9.824 68.1411 9.824C68.8971 9.824 69.4711 9.502 69.9471 8.914L71.1511 9.824C70.4231 10.72 69.4571 11.168 68.3091 11.168C66.2511 11.168 64.6551 9.74 64.6551 7.64C64.6551 5.554 66.2511 4.112 68.3091 4.112ZM66.3351 6.968H69.7791C69.7651 5.918 69.0511 5.372 68.0571 5.372C67.0631 5.372 66.4611 6.016 66.3351 6.968Z" fill="#0D345F"/>
<path d="M83.4849 3.35966C83.45 3.39449 83.4224 3.43585 83.4035 3.48137C83.3846 3.5269 83.3749 3.57569 83.3749 3.62497C83.3749 3.67426 83.3846 3.72305 83.4035 3.76858C83.4224 3.8141 83.45 3.85546 83.4849 3.89029L86.22 6.62497L78.8752 6.62498C78.7757 6.62498 78.6804 6.66448 78.61 6.73481C78.5397 6.80514 78.5002 6.90052 78.5002 6.99998C78.5002 7.09943 78.5397 7.19481 78.61 7.26514C78.6804 7.33547 78.7757 7.37498 78.8752 7.37498L86.22 7.37497L83.4849 10.1097C83.4145 10.18 83.375 10.2755 83.375 10.375C83.375 10.4745 83.4145 10.5699 83.4849 10.6403C83.5552 10.7107 83.6507 10.7502 83.7502 10.7502C83.8497 10.7502 83.9451 10.7107 84.0155 10.6403L87.3905 7.26529C87.4254 7.23046 87.453 7.1891 87.4719 7.14358C87.4908 7.09805 87.5005 7.04926 87.5005 6.99997C87.5005 6.95069 87.4908 6.9019 87.4719 6.85637C87.453 6.81085 87.4254 6.76949 87.3905 6.73466L84.0155 3.35966C83.9807 3.3248 83.9393 3.29714 83.8938 3.27826C83.8483 3.25939 83.7995 3.24968 83.7502 3.24968C83.7009 3.24968 83.6521 3.25939 83.6066 3.27826C83.5611 3.29714 83.5197 3.3248 83.4849 3.35966Z" fill="#0D345F"/>
<line x1="-4.37114e-08" y1="16.5" x2="89" y2="16.5" stroke="#0D345F"/>
</svg>
